<svg width="200" height="200" viewBox="0 0 200 200" fill="none" xmlns="http://www.w3.org/2000/svg">
<rect width="53" height="94" transform="matrix(1.19249e-08 1 1 -1.19249e-08 53 147)" fill="#4D8A4B"/>
<rect width="124" height="94" rx="22" transform="matrix(1.19249e-08 1 1 -1.19249e-08 53 53)" fill="#4D8A4B"/>
<rect width="124" height="94" rx="22" transform="matrix(1 -5.56363e-08 -5.56363e-08 -1 72 147)" fill="#4D8A4B"/>
<rect width="53" height="94" transform="matrix(-1 -3.17865e-08 -3.17865e-08 1 200 53)" fill="#4D8A4B"/>
<line y1="-0.5" x2="36.1199" y2="-0.5" transform="matrix(0.730704 0.682694 0.954535 -0.298099 54 170)" stroke="#676767"/>
<line y1="-0.5" x2="36.1199" y2="-0.5" transform="matrix(0.730704 -0.682694 0.954535 0.298099 120.72 194.659)" stroke="#676767"/>
<line y1="-0.5" x2="35.9155" y2="-0.5" transform="matrix(-0.68658 0.727054 0.301012 0.953621 190.659 54)" stroke="#676767"/>
<line y1="-0.5" x2="35.9155" y2="-0.5" transform="matrix(0.68658 0.727055 -0.301012 0.953621 166 120)" stroke="#676767"/>
<path d="M98.5 72L78 84L76 109.5" stroke="#676767"/>
<path d="M121 146.5L141.5 134.5L143.5 109" stroke="#676767"/>
</svg>
