<svg width="1432" height="400" viewBox="0 0 1432 400" fill="none" xmlns="http://www.w3.org/2000/svg">
<circle cx="1271.75" cy="314.641" r="51.7541" fill="#CE3131"/>
<rect x="1279.18" y="239" width="5.57352" height="38.2184" rx="2.78676" transform="rotate(11.2027 1279.18 239)" fill="#9B691E"/>
<ellipse cx="1260.91" cy="265.484" rx="22.8331" ry="10.3508" transform="rotate(28.9663 1260.91 265.484)" fill="#46B42B"/>
<rect width="53" height="94" transform="matrix(1.19249e-08 -1 -1 -1.19249e-08 322 253)" fill="#4D8A4B"/>
<rect width="124" height="94" rx="22" transform="matrix(1.19249e-08 -1 -1 -1.19249e-08 322 347)" fill="#4D8A4B"/>
<rect width="124" height="94" rx="22" transform="matrix(-1 3.17865e-08 3.17865e-08 1 303 253)" fill="#4D8A4B"/>
<rect width="53" height="94" transform="matrix(1 5.58548e-08 5.54188e-08 -1 175 347)" fill="#4D8A4B"/>
<line y1="-0.5" x2="36.1199" y2="-0.5" transform="matrix(-0.730704 -0.682694 -0.954535 0.298099 321 230)" stroke="#676767"/>
<line y1="-0.5" x2="36.1199" y2="-0.5" transform="matrix(-0.730704 0.682694 -0.954535 -0.298098 254.28 205.341)" stroke="#676767"/>
<line y1="-0.5" x2="35.9155" y2="-0.5" transform="matrix(0.68658 -0.727054 -0.301012 -0.953621 184.341 346)" stroke="#676767"/>
<line y1="-0.5" x2="35.9155" y2="-0.5" transform="matrix(-0.68658 -0.727055 0.301012 -0.953621 209 280)" stroke="#676767"/>
<path d="M276.5 328L297 316L299 290.5" stroke="#676767"/>
<path d="M254 253.5L233.5 265.5L231.5 291" stroke="#676767"/>
<rect width="53" height="94" transform="matrix(-4.37114e-08 1 1 4.37114e-08 228 147)" fill="#4D8A4B"/>
<rect width="124" height="94" rx="22" transform="matrix(-4.37114e-08 1 1 4.37114e-08 228 53)" fill="#4D8A4B"/>
<rect width="124" height="94" rx="22" transform="matrix(1 0 0 -1 247 147)" fill="#4D8A4B"/>
<rect width="53" height="94" transform="matrix(-1 -8.76413e-08 -8.72053e-08 1 375 53)" fill="#4D8A4B"/>
<line y1="-0.5" x2="36.1199" y2="-0.5" transform="matrix(0.730704 0.682694 0.954535 -0.298099 229 170)" stroke="#676767"/>
<line y1="-0.5" x2="36.1199" y2="-0.5" transform="matrix(0.730704 -0.682694 0.954535 0.298099 295.72 194.659)" stroke="#676767"/>
<line y1="-0.5" x2="35.9155" y2="-0.5" transform="matrix(-0.68658 0.727054 0.301012 0.953621 365.659 54)" stroke="#676767"/>
<line y1="-0.5" x2="35.9155" y2="-0.5" transform="matrix(0.68658 0.727055 -0.301012 0.953621 341 120)" stroke="#676767"/>
<path d="M273.5 72L253 84L251 109.5" stroke="#676767"/>
<path d="M296 146.5L316.5 134.5L318.5 109" stroke="#676767"/>
<rect width="53" height="94" transform="matrix(-1 -8.74228e-08 -8.74228e-08 1 428 53.0001)" fill="#4D8A4B"/>
<rect width="124" height="94" rx="22" transform="matrix(-1 -8.74228e-08 -8.74228e-08 1 522 53.0001)" fill="#4D8A4B"/>
<rect width="124" height="94" rx="22" transform="matrix(-4.37114e-08 1 1 4.37114e-08 428 71.9999)" fill="#4D8A4B"/>
<rect width="53" height="94" transform="matrix(1.31353e-07 -1 -1 -1.30917e-07 522 200)" fill="#4D8A4B"/>
<line y1="-0.5" x2="36.1199" y2="-0.5" transform="matrix(-0.682694 0.730704 0.298098 0.954535 405 54)" stroke="#676767"/>
<line y1="-0.5" x2="36.1199" y2="-0.5" transform="matrix(0.682694 0.730704 -0.298099 0.954535 380.341 120.72)" stroke="#676767"/>
<line y1="-0.5" x2="35.9155" y2="-0.5" transform="matrix(-0.727054 -0.68658 -0.953621 0.301011 521 190.659)" stroke="#676767"/>
<line y1="-0.5" x2="35.9155" y2="-0.5" transform="matrix(-0.727055 0.68658 -0.953621 -0.301012 455 166)" stroke="#676767"/>
<path d="M503 98.5001L491 78.0001L465.5 76.0001" stroke="#676767"/>
<path d="M428.5 121L440.5 141.5L466 143.5" stroke="#676767"/>
<rect width="53" height="94" transform="matrix(1 0 0 -1 522 347)" fill="#4D8A4B"/>
<rect width="124" height="94" rx="22" transform="matrix(1 0 0 -1 428 347)" fill="#4D8A4B"/>
<rect width="124" height="94" rx="22" transform="matrix(-4.37114e-08 -1 -1 4.37114e-08 522 328)" fill="#4D8A4B"/>
<rect width="53" height="94" transform="matrix(-4.39299e-08 1 1 4.34939e-08 428 200)" fill="#4D8A4B"/>
<line y1="-0.5" x2="36.1199" y2="-0.5" transform="matrix(0.682694 -0.730704 -0.298099 -0.954535 545 346)" stroke="#676767"/>
<line y1="-0.5" x2="36.1199" y2="-0.5" transform="matrix(-0.682694 -0.730704 0.298099 -0.954535 569.659 279.28)" stroke="#676767"/>
<line y1="-0.5" x2="35.9155" y2="-0.5" transform="matrix(0.727054 0.68658 0.953621 -0.301012 429 209.341)" stroke="#676767"/>
<line y1="-0.5" x2="35.9155" y2="-0.5" transform="matrix(0.727055 -0.68658 0.953621 0.301012 495 234)" stroke="#676767"/>
<path d="M447 301.5L459 322L484.5 324" stroke="#676767"/>
<path d="M521.5 279L509.5 258.5L484 256.5" stroke="#676767"/>
<rect width="53" height="94" transform="matrix(-4.37114e-08 -1 -1 4.37114e-08 722 253)" fill="#4D8A4B"/>
<rect width="124" height="94" rx="22" transform="matrix(-4.37114e-08 -1 -1 4.37114e-08 722 347)" fill="#4D8A4B"/>
<rect width="124" height="94" rx="22" transform="matrix(-1 8.74228e-08 8.74228e-08 1 703 253)" fill="#4D8A4B"/>
<rect width="53" height="94" transform="matrix(1 2.18549e-10 -2.17476e-10 -1 575 347)" fill="#4D8A4B"/>
<line y1="-0.5" x2="36.1199" y2="-0.5" transform="matrix(-0.730704 -0.682694 -0.954535 0.298099 721 230)" stroke="#676767"/>
<line y1="-0.5" x2="36.1199" y2="-0.5" transform="matrix(-0.730704 0.682694 -0.954535 -0.298098 654.28 205.341)" stroke="#676767"/>
<line y1="-0.5" x2="35.9155" y2="-0.5" transform="matrix(0.68658 -0.727055 -0.301012 -0.953621 584.341 346)" stroke="#676767"/>
<line y1="-0.5" x2="35.9155" y2="-0.5" transform="matrix(-0.68658 -0.727055 0.301012 -0.953621 609 280)" stroke="#676767"/>
<path d="M676.5 328L697 316L699 290.5" stroke="#676767"/>
<path d="M654 253.5L633.5 265.5L631.5 291" stroke="#676767"/>
<rect x="975" y="253" width="17.9613" height="94" fill="#4D8A4B"/>
<ellipse cx="1043.85" cy="343.381" rx="21.5614" ry="15.9984" transform="rotate(-90 1043.85 343.381)" fill="white"/>
<ellipse cx="1043.85" cy="257.136" rx="21.5614" ry="15.9984" transform="rotate(-90 1043.85 257.136)" fill="white"/>
<path d="M1172.71 316.743C1162.82 312.64 1131.81 307.182 1107.3 308.832C1098.99 303.89 1086.98 294.356 1105.45 295.754C1123.91 297.151 1160.6 288.826 1172.85 284.578L1151.53 300.599L1172.71 316.743Z" fill="#D54242" stroke="black"/>
<path fill-rule="evenodd" clip-rule="evenodd" d="M978.41 335.452C974.443 323.599 974.613 310.591 985.182 300L986.435 300C976.26 310.196 975.571 323.493 979.456 335.1C983.347 346.725 991.371 357.353 997.583 363.578L997.601 363.597L997.618 363.616C1001.16 367.89 1007.4 372.989 1014.61 374.471C1018.21 375.21 1022.04 375.05 1025.92 373.446C1029.8 371.841 1033.76 368.773 1037.57 363.639C1045.39 353.116 1060.46 344.638 1076.01 338.316C1091.5 332.022 1107.57 327.824 1117.72 325.868C1121.08 322.022 1124.86 311.259 1116.77 300.164L1118.1 300.164C1126.68 311.934 1122.03 322.742 1118.42 326.746L1118.29 326.884L1118.11 326.918C1108.03 328.848 1091.93 333.04 1076.43 339.341C1060.9 345.651 1046.09 354.036 1038.46 364.3C1034.55 369.559 1030.44 372.771 1026.34 374.468C1022.24 376.166 1018.18 376.332 1014.39 375.554C1006.86 374.007 1000.42 368.726 996.785 364.342C990.496 358.034 982.367 347.275 978.41 335.452Z" fill="#497948"/>
<path fill-rule="evenodd" clip-rule="evenodd" d="M978.374 264.548C974.407 276.401 974.613 289.409 985.182 300L986.435 300C976.26 289.804 975.535 276.507 979.42 264.9C983.311 253.275 991.335 242.648 997.547 236.422L997.565 236.403L997.582 236.384C1001.12 232.11 1007.36 227.011 1014.58 225.529C1018.17 224.791 1022.01 224.95 1025.88 226.554C1029.76 228.159 1033.72 231.227 1037.54 236.361C1045.36 246.884 1060.42 255.362 1075.98 261.684C1091.46 267.978 1107.53 272.176 1117.68 274.133C1121.05 277.978 1124.86 289.07 1116.77 300.164L1118.1 300.164C1126.68 288.394 1122 277.258 1118.38 273.254L1118.26 273.117L1118.08 273.082C1107.99 271.152 1091.89 266.96 1076.39 260.659C1060.87 254.349 1046.05 245.964 1038.42 235.7C1034.51 230.441 1030.41 227.229 1026.3 225.532C1022.2 223.834 1018.14 223.668 1014.35 224.446C1006.82 225.993 1000.39 231.274 996.749 235.658C990.46 241.966 982.331 252.725 978.374 264.548Z" fill="#497948"/>
<path d="M986.435 300C976.26 310.196 975.571 323.493 979.456 335.1C983.347 346.725 991.371 357.353 997.583 363.578L997.601 363.597L997.618 363.616C1001.16 367.89 1007.4 372.989 1014.61 374.471C1018.21 375.21 1022.04 375.05 1025.92 373.446C1029.8 371.841 1033.76 368.773 1037.57 363.639C1045.39 353.116 1060.46 344.638 1076.01 338.316C1091.5 332.022 1107.57 327.824 1117.72 325.868C1121.08 322.022 1124.86 311.259 1116.77 300.164C1124.86 289.07 1121.05 277.978 1117.68 274.133C1107.53 272.176 1091.46 267.978 1075.98 261.684C1060.42 255.362 1045.36 246.884 1037.54 236.361C1033.72 231.227 1029.76 228.159 1025.88 226.554C1022.01 224.95 1018.17 224.791 1014.58 225.529C1007.36 227.011 1001.12 232.11 997.582 236.384L997.565 236.403L997.547 236.422C991.335 242.648 983.311 253.275 979.42 264.9C975.535 276.507 976.26 289.804 986.435 300Z" fill="#497948"/>
<line y1="-0.5" x2="116.644" y2="-0.5" transform="matrix(0.93644 -0.350828 0.349506 0.936934 999.168 349.463)" stroke="black"/>
<line y1="-0.5" x2="116.644" y2="-0.5" transform="matrix(0.93644 0.350828 0.349506 -0.936934 999.168 252.15)" stroke="black"/>
<rect x="102" y="253" width="74" height="94" fill="#4D8A4B"/>
<path d="M58.5471 322.596C42.2527 311.938 42.2527 288.062 58.5472 277.404L89.4709 257.178C107.428 245.433 131.25 258.316 131.25 279.774L131.25 320.226C131.25 341.684 107.428 354.567 89.4709 342.822L58.5471 322.596Z" fill="#4D8A4B"/>
<line x1="116.25" y1="253.567" x2="161.416" y2="279.68" stroke="#676767"/>
<line y1="-0.5" x2="52.1708" y2="-0.5" transform="matrix(-0.865725 0.50052 0.50052 0.865725 161.166 321)" stroke="#676767"/>
<line y1="-0.5" x2="30.9673" y2="-0.5" transform="matrix(0.715773 0.698333 -0.324113 0.946018 88 262)" stroke="#676767"/>
<line y1="-0.5" x2="30.9673" y2="-0.5" transform="matrix(-0.715773 0.698333 0.324113 0.946018 110.166 316.487)" stroke="#676767"/>
<rect width="53" height="94" transform="matrix(-4.37114e-08 1 1 4.37114e-08 628 147)" fill="#4D8A4B"/>
<rect width="124" height="94" rx="22" transform="matrix(-4.37114e-08 1 1 4.37114e-08 628 53)" fill="#4D8A4B"/>
<rect width="124" height="94" rx="22" transform="matrix(1 0 0 -1 647 147)" fill="#4D8A4B"/>
<rect width="53" height="94" transform="matrix(-1 -8.76413e-08 -8.72053e-08 1 775 53)" fill="#4D8A4B"/>
<line y1="-0.5" x2="36.1199" y2="-0.5" transform="matrix(0.730704 0.682694 0.954535 -0.298099 629 170)" stroke="#676767"/>
<line y1="-0.5" x2="36.1199" y2="-0.5" transform="matrix(0.730704 -0.682694 0.954535 0.298099 695.72 194.659)" stroke="#676767"/>
<line y1="-0.5" x2="35.9155" y2="-0.5" transform="matrix(-0.68658 0.727054 0.301012 0.953621 765.659 54)" stroke="#676767"/>
<line y1="-0.5" x2="35.9155" y2="-0.5" transform="matrix(0.68658 0.727055 -0.301012 0.953621 741 120)" stroke="#676767"/>
<path d="M673.5 72L653 84L651 109.5" stroke="#676767"/>
<path d="M696 146.5L716.5 134.5L718.5 109" stroke="#676767"/>
<rect width="53" height="94" transform="matrix(-1 -8.74228e-08 -8.74228e-08 1 828 53.0001)" fill="#4D8A4B"/>
<rect width="124" height="94" rx="22" transform="matrix(-1 -8.74228e-08 -8.74228e-08 1 922 53.0001)" fill="#4D8A4B"/>
<rect width="124" height="94" rx="22" transform="matrix(-4.37114e-08 1 1 4.37114e-08 828 71.9999)" fill="#4D8A4B"/>
<rect width="53" height="94" transform="matrix(1.31353e-07 -1 -1 -1.30917e-07 922 200)" fill="#4D8A4B"/>
<line y1="-0.5" x2="36.1199" y2="-0.5" transform="matrix(-0.682694 0.730704 0.298098 0.954535 805 54)" stroke="#676767"/>
<line y1="-0.5" x2="36.1199" y2="-0.5" transform="matrix(0.682694 0.730704 -0.298099 0.954535 780.341 120.72)" stroke="#676767"/>
<line y1="-0.5" x2="35.9155" y2="-0.5" transform="matrix(-0.727054 -0.68658 -0.953621 0.301011 921 190.659)" stroke="#676767"/>
<line y1="-0.5" x2="35.9155" y2="-0.5" transform="matrix(-0.727055 0.68658 -0.953621 -0.301012 855 166)" stroke="#676767"/>
<path d="M903 98.5001L891 78.0001L865.5 76.0001" stroke="#676767"/>
<path d="M828.5 121L840.5 141.5L866 143.5" stroke="#676767"/>
<rect width="53" height="94" transform="matrix(1 0 0 -1 922 347)" fill="#4D8A4B"/>
<rect width="124" height="94" rx="22" transform="matrix(1 0 0 -1 828 347)" fill="#4D8A4B"/>
<rect width="124" height="94" rx="22" transform="matrix(-4.37114e-08 -1 -1 4.37114e-08 922 328)" fill="#4D8A4B"/>
<rect width="53" height="94" transform="matrix(-4.39299e-08 1 1 4.34939e-08 828 200)" fill="#4D8A4B"/>
<line y1="-0.5" x2="36.1199" y2="-0.5" transform="matrix(0.682694 -0.730704 -0.298099 -0.954535 945 346)" stroke="#676767"/>
<line y1="-0.5" x2="36.1199" y2="-0.5" transform="matrix(-0.682694 -0.730704 0.298099 -0.954535 969.659 279.28)" stroke="#676767"/>
<line y1="-0.5" x2="35.9155" y2="-0.5" transform="matrix(0.727054 0.68658 0.953621 -0.301012 829 209.341)" stroke="#676767"/>
<line y1="-0.5" x2="35.9155" y2="-0.5" transform="matrix(0.727055 -0.68658 0.953621 0.301012 895 234)" stroke="#676767"/>
<path d="M847 301.5L859 322L884.5 324" stroke="#676767"/>
<path d="M921.5 279L909.5 258.5L884 256.5" stroke="#676767"/>
</svg>
