<svg width="200" height="200" viewBox="0 0 200 200" fill="none" xmlns="http://www.w3.org/2000/svg">
<rect x="126" y="53" width="74" height="94" fill="#4D8A4B"/>
<path d="M82.5471 122.596C66.2527 111.938 66.2527 88.0616 82.5472 77.404L113.471 57.178C131.428 45.4327 155.25 58.3164 155.25 79.774L155.25 120.226C155.25 141.684 131.428 154.567 113.471 142.822L82.5471 122.596Z" fill="#4D8A4B"/>
<line x1="140.25" y1="53.5671" x2="185.416" y2="79.6797" stroke="#676767"/>
<line y1="-0.5" x2="52.1708" y2="-0.5" transform="matrix(-0.865725 0.50052 0.50052 0.865725 185.166 121)" stroke="#676767"/>
<line y1="-0.5" x2="30.9673" y2="-0.5" transform="matrix(0.715773 0.698333 -0.324113 0.946018 112 62)" stroke="#676767"/>
<line y1="-0.5" x2="30.9673" y2="-0.5" transform="matrix(-0.715773 0.698333 0.324113 0.946018 134.166 116.487)" stroke="#676767"/>
</svg>
